{"accessors":[{"bufferView":0,"byteOffset":0,"componentType":5126,"count":122,"max":[0.39999999487427806,0.1,0.39999999487427806],"min":[-0.39999999487427806,0.0,-0.39999999487427806],"type":"VEC3"},{"bufferView":0,"byteOffset":1464,"componentType":5126,"count":60,"max":[0.39999999487427806,0.0,0.39999999487427806],"min":[-0.39999999487427806,0.0,-0.39999999487427806],"type":"VEC3"},{"bufferView":0,"byteOffset":2184,"componentType":5126,"count":128,"max":[0.39999999487427806,0.1,0.39999999487427806],"min":[-0.39999999487427806,0.1,-0.39999999487427806],"type":"VEC3"},{"bufferView":0,"byteOffset":3720,"componentType":5126,"count":24,"max":[0.3898153357705892,0.1,0.36322994920839996],"min":[0.14200000000000024,0.01,0.01199999999999507],"type":"VEC3"},{"bufferView":0,"byteOffset":4008,"componentType":5126,"count":72,"max":[0.3899999974204723,0.01,0.38990396835012164],"min":[-0.3895867583771564,0.01,-0.3898203611830165],"type":"VEC3"},{"bufferView":0,"byteOffset":4872,"componentType":5126,"count":34,"max":[0.13195073323759857,0.1,0.38990396835012164],"min":[-0.3827205194419779,0.01,0.07499999999999839],"type":"VEC3"},{"bufferView":0,"byteOffset":5280,"componentType":5126,"count":64,"max":[0.3899999974454724,0.1,0.0649999999999901],"min":[-0.3895867583771564,0.01,-0.3898203611830165],"type":"VEC3"},{"bufferView":0,"byteOffset":6048,"componentType":5126,"count":4,"max":[-0.125,0.1,0.065],"min":[-0.3845451807030476,0.01,0.06499999999998997],"type":"VEC3"},{"bufferView":0,"byteOffset":6096,"componentType":5126,"count":4,"max":[0.3899999974454724,0.1,2.4156075650062735e-17],"min":[0.13,0.01,0.0],"type":"VEC3"},{"bufferView":0,"byteOffset":6144,"componentType":5126,"count":4,"max":[0.13195073323759857,0.1,0.367],"min":[0.13,0.01,0.36699999999999794],"type":"VEC3"},{"bufferView":0,"byteOffset":6192,"componentType":5126,"count":4,"max":[-0.125,0.1,0.075],"min":[-0.3827205194419779,0.01,0.07499999999999839],"type":"VEC3"},{"bufferView":0,"byteOffset":6240,"componentType":5126,"count":4,"max":[0.3898153357705892,0.1,0.012000000000016905],"min":[0.13,0.01,0.01199999999999507],"type":"VEC3"},{"bufferView":0,"byteOffset":6288,"componentType":5126,"count":4,"max":[0.14200000000000093,0.1,0.36322994920839996],"min":[0.14200000000000002,0.01,0.07200000000000001],"type":"VEC3"},{"bufferView":0,"byteOffset":6336,"componentType":5126,"count":4,"max":[0.13,0.1,0.012],"min":[0.13,0.01,0.0],"type":"VEC3"},{"bufferView":0,"byteOffset":6384,"componentType":5126,"count":4,"max":[0.14200000000000002,0.1,0.07200000000000001],"min":[0.13,0.01,0.07200000000000001],"type":"VEC3"},{"bufferView":0,"byteOffset":6432,"componentType":5126,"count":4,"max":[0.13,0.1,0.367],"min":[0.13,0.01,0.07200000000000001],"type":"VEC3"},{"bufferView":0,"byteOffset":6480,"componentType":5126,"count":4,"max":[-0.125,0.1,0.075],"min":[-0.125,0.01,0.065],"type":"VEC3"},{"bufferView":0,"byteOffset":6528,"componentType":5126,"count":4,"max":[-0.07500000000000001,0.1,0.075],"min":[-0.07500000000000001,0.01,-0.075],"type":"VEC3"},{"bufferView":0,"byteOffset":6576,"componentType":5126,"count":4,"max":[0.07499999999999998,0.1,0.075],"min":[-0.07500000000000001,0.01,0.075],"type":"VEC3"},{"bufferView":0,"byteOffset":6624,"componentType":5126,"count":4,"max":[0.07499999999999998,0.1,0.075],"min":[0.07499999999999998,0.01,-0.075],"type":"VEC3"},{"bufferView":0,"byteOffset":6672,"componentType":5126,"count":4,"max":[0.07499999999999998,0.1,-0.075],"min":[-0.07500000000000001,0.01,-0.075],"type":"VEC3"},{"bufferView":0,"byteOffset":6720,"componentType":5126,"count":4,"max":[0.07499999999999998,0.1,0.075],"min":[-0.07500000000000001,0.1,-0.075],"type":"VEC3"},{"bufferView":1,"byteOffset":0,"componentType":5126,"count":122,"type":"VEC3"},{"bufferView":1,"byteOffset":1464,"componentType":5126,"count":60,"type":"VEC3"},{"bufferView":1,"byteOffset":2184,"componentType":5126,"count":128,"type":"VEC3"},{"bufferView":1,"byteOffset":3720,"componentType":5126,"count":24,"type":"VEC3"},{"bufferView":1,"byteOffset":4008,"componentType":5126,"count":72,"type":"VEC3"},{"bufferView":1,"byteOffset":4872,"componentType":5126,"count":34,"type":"VEC3"},{"bufferView":1,"byteOffset":5280,"componentType":5126,"count":64,"type":"VEC3"},{"bufferView":1,"byteOffset":6048,"componentType":5126,"count":4,"type":"VEC3"},{"bufferView":1,"byteOffset":6096,"componentType":5126,"count":4,"type":"VEC3"},{"bufferView":1,"byteOffset":6144,"componentType":5126,"count":4,"type":"VEC3"},{"bufferView":1,"byteOffset":6192,"componentType":5126,"count":4,"type":"VEC3"},{"bufferView":1,"byteOffset":6240,"componentType":5126,"count":4,"type":"VEC3"},{"bufferView":1,"byteOffset":6288,"componentType":5126,"count":4,"type":"VEC3"},{"bufferView":1,"byteOffset":6336,"componentType":5126,"count":4,"type":"VEC3"},{"bufferView":1,"byteOffset":6384,"componentType":5126,"count":4,"type":"VEC3"},{"bufferView":1,"byteOffset":6432,"componentType":5126,"count":4,"type":"VEC3"},{"bufferView":1,"byteOffset":6480,"componentType":5126,"count":4,"type":"VEC3"},{"bufferView":1,"byteOffset":6528,"componentType":5126,"count":4,"type":"VEC3"},{"bufferView":1,"byteOffset":6576,"componentType":5126,"count":4,"type":"VEC3"},{"bufferView":1,"byteOffset":6624,"componentType":5126,"count":4,"type":"VEC3"},{"bufferView":1,"byteOffset":6672,"componentType":5126,"count":4,"type":"VEC3"},{"bufferView":1,"byteOffset":6720,"componentType":5126,"count":4,"type":"VEC3"},{"bufferView":2,"byteOffset":0,"componentType":5123,"count":360,"type":"SCALAR"},{"bufferView":2,"byteOffset":720,"componentType":5123,"count":174,"type":"SCALAR"},{"bufferView":2,"byteOffset":1068,"componentType":5123,"count":384,"type":"SCALAR"},{"bufferView":2,"byteOffset":1836,"componentType":5123,"count":66,"type":"SCALAR"},{"bufferView":2,"byteOffset":1968,"componentType":5123,"count":216,"type":"SCALAR"},{"bufferView":2,"byteOffset":2400,"componentType":5123,"count":96,"type":"SCALAR"},{"bufferView":2,"byteOffset":2592,"componentType":5123,"count":186,"type":"SCALAR"},{"bufferView":2,"byteOffset":2964,"componentType":5123,"count":6,"type":"SCALAR"},{"bufferView":2,"byteOffset":2976,"componentType":5123,"count":6,"type":"SCALAR"},{"bufferView":2,"byteOffset":2988,"componentType":5123,"count":6,"type":"SCALAR"},{"bufferView":2,"byteOffset":3000,"componentType":5123,"count":6,"type":"SCALAR"},{"bufferView":2,"byteOffset":3012,"componentType":5123,"count":6,"type":"SCALAR"},{"bufferView":2,"byteOffset":3024,"componentType":5123,"count":6,"type":"SCALAR"},{"bufferView":2,"byteOffset":3036,"componentType":5123,"count":6,"type":"SCALAR"},{"bufferView":2,"byteOffset":3048,"componentType":5123,"count":6,"type":"SCALAR"},{"bufferView":2,"byteOffset":3060,"componentType":5123,"count":6,"type":"SCALAR"},{"bufferView":2,"byteOffset":3072,"componentType":5123,"count":6,"type":"SCALAR"},{"bufferView":2,"byteOffset":3084,"componentType":5123,"count":6,"type":"SCALAR"},{"bufferView":2,"byteOffset":3096,"componentType":5123,"count":6,"type":"SCALAR"},{"bufferView":2,"byteOffset":3108,"componentType":5123,"count":6,"type":"SCALAR"},{"bufferView":2,"byteOffset":3120,"componentType":5123,"count":6,"type":"SCALAR"},{"bufferView":2,"byteOffset":3132,"componentType":5123,"count":6,"type":"SCALAR"}],"asset":{"generator":"Open CASCADE Technology 7.8 [dev.opencascade.org]","version":"2.0"},"bufferViews":[{"buffer":0,"byteLength":6768,"byteOffset":0,"byteStride":12,"target":34962},{"buffer":0,"byteLength":6768,"byteOffset":6768,"byteStride":12,"target":34962},{"buffer":0,"byteLength":3144,"byteOffset":13536,"target":34963}],"buffers":[{"byteLength":16680,"uri":"etherlaken-Main_Building_F0.bin"}],"materials":[{"name":"mat_0","pbrMetallicRoughness":{"baseColorFactor":[0.16826939582824707,0.19120168685913086,0.2158605307340622,1.0]},"doubleSided":true}],"meshes":[{"name":"Main_Building_F0","primitives":[{"attributes":{"NORMAL":22,"POSITION":0},"indices":44,"material":0,"mode":4},{"attributes":{"NORMAL":23,"POSITION":1},"indices":45,"material":0,"mode":4},{"attributes":{"NORMAL":24,"POSITION":2},"indices":46,"material":0,"mode":4},{"attributes":{"NORMAL":25,"POSITION":3},"indices":47,"material":0,"mode":4},{"attributes":{"NORMAL":26,"POSITION":4},"indices":48,"material":0,"mode":4},{"attributes":{"NORMAL":27,"POSITION":5},"indices":49,"material":0,"mode":4},{"attributes":{"NORMAL":28,"POSITION":6},"indices":50,"material":0,"mode":4},{"attributes":{"NORMAL":29,"POSITION":7},"indices":51,"material":0,"mode":4},{"attributes":{"NORMAL":30,"POSITION":8},"indices":52,"material":0,"mode":4},{"attributes":{"NORMAL":31,"POSITION":9},"indices":53,"material":0,"mode":4},{"attributes":{"NORMAL":32,"POSITION":10},"indices":54,"material":0,"mode":4},{"attributes":{"NORMAL":33,"POSITION":11},"indices":55,"material":0,"mode":4},{"attributes":{"NORMAL":34,"POSITION":12},"indices":56,"material":0,"mode":4},{"attributes":{"NORMAL":35,"POSITION":13},"indices":57,"material":0,"mode":4},{"attributes":{"NORMAL":36,"POSITION":14},"indices":58,"material":0,"mode":4},{"attributes":{"NORMAL":37,"POSITION":15},"indices":59,"material":0,"mode":4},{"attributes":{"NORMAL":38,"POSITION":16},"indices":60,"material":0,"mode":4},{"attributes":{"NORMAL":39,"POSITION":17},"indices":61,"material":0,"mode":4},{"attributes":{"NORMAL":40,"POSITION":18},"indices":62,"material":0,"mode":4},{"attributes":{"NORMAL":41,"POSITION":19},"indices":63,"material":0,"mode":4},{"attributes":{"NORMAL":42,"POSITION":20},"indices":64,"material":0,"mode":4},{"attributes":{"NORMAL":43,"POSITION":21},"indices":65,"material":0,"mode":4}]}],"nodes":[{"mesh":0,"name":"Main_Building_F0"}],"scene":0,"scenes":[{"nodes":[0]}]}