{"accessors":[{"bufferView":0,"byteOffset":0,"componentType":5126,"count":1188,"max":[0.09999961328245398,0.473674969975976,0.09995218543720298],"min":[-0.09980994688963446,0.2800000000000001,-0.09995218543720316],"type":"VEC3"},{"bufferView":0,"byteOffset":14256,"componentType":5126,"count":30,"max":[0.035000000000000045,0.2800000000000001,0.03480826633788954],"min":[-0.035000000000000045,0.2800000000000001,-0.03480826633788968],"type":"VEC3"},{"bufferView":1,"byteOffset":0,"componentType":5126,"count":1188,"type":"VEC3"},{"bufferView":1,"byteOffset":14256,"componentType":5126,"count":30,"type":"VEC3"},{"bufferView":2,"byteOffset":0,"componentType":5123,"count":6891,"type":"SCALAR"},{"bufferView":2,"byteOffset":13784,"componentType":5123,"count":84,"type":"SCALAR"}],"asset":{"generator":"Open CASCADE Technology 7.8 [dev.opencascade.org]","version":"2.0"},"bufferViews":[{"buffer":0,"byteLength":14616,"byteOffset":0,"byteStride":12,"target":34962},{"buffer":0,"byteLength":14616,"byteOffset":14616,"byteStride":12,"target":34962},{"buffer":0,"byteLength":13952,"byteOffset":29232,"target":34963}],"buffers":[{"byteLength":43184,"uri":"etherlaken-Main_Building_Tower_Ball.bin"}],"materials":[{"name":"mat_0","pbrMetallicRoughness":{"baseColorFactor":[0.16826939582824707,0.19120168685913086,0.2158605307340622,1.0]},"doubleSided":true}],"meshes":[{"name":"Main_Building_Tower_Ball","primitives":[{"attributes":{"NORMAL":2,"POSITION":0},"indices":4,"material":0,"mode":4},{"attributes":{"NORMAL":3,"POSITION":1},"indices":5,"material":0,"mode":4}]}],"nodes":[{"mesh":0,"name":"Main_Building_Tower_Ball"}],"scene":0,"scenes":[{"nodes":[0]}]}