{"accessors":[{"bufferView":0,"byteOffset":0,"componentType":5126,"count":4,"max":[-0.3968626966596886,0.1,-0.04999999999999994],"min":[-0.5979130371550699,0.0,-0.05000000000000008],"type":"VEC3"},{"bufferView":0,"byteOffset":48,"componentType":5126,"count":8,"max":[-0.39686269665968854,0.1,0.04999999999999996],"min":[-0.399651004866028,0.0,-0.05000000000000008],"type":"VEC3"},{"bufferView":0,"byteOffset":144,"componentType":5126,"count":4,"max":[-0.39686269665968854,0.1,0.04999999999999996],"min":[-0.5979130371550699,0.0,0.04999999999999993],"type":"VEC3"},{"bufferView":0,"byteOffset":192,"componentType":5126,"count":8,"max":[-0.5979130371550699,0.1,0.04999999999999993],"min":[-0.6007013453614093,0.0,-0.04999999999999994],"type":"VEC3"},{"bufferView":0,"byteOffset":288,"componentType":5126,"count":8,"max":[-0.39686269665968854,0.0,0.04999999999999996],"min":[-0.6007013453614093,0.0,-0.05000000000000008],"type":"VEC3"},{"bufferView":0,"byteOffset":384,"componentType":5126,"count":8,"max":[-0.39686269665968854,0.1,0.04999999999999996],"min":[-0.6007013453614093,0.1,-0.05000000000000008],"type":"VEC3"},{"bufferView":0,"byteOffset":480,"componentType":5126,"count":8,"max":[0.04999999999999947,0.1,-0.39686269665968865],"min":[-0.049999999999999455,0.0,-0.3996510051611845],"type":"VEC3"},{"bufferView":0,"byteOffset":576,"componentType":5126,"count":4,"max":[-0.04999999999999884,0.1,-0.39686269665968865],"min":[-0.049999999999999455,0.0,-0.5979130371550699],"type":"VEC3"},{"bufferView":0,"byteOffset":624,"componentType":5126,"count":8,"max":[0.04999999999999943,0.1,-0.5979130371550699],"min":[-0.04999999999999884,0.0,-0.5997679953555682],"type":"VEC3"},{"bufferView":0,"byteOffset":720,"componentType":5126,"count":4,"max":[0.04999999999999947,0.1,-0.3968626966596887],"min":[0.04999999999999943,0.0,-0.5979130371550699],"type":"VEC3"},{"bufferView":0,"byteOffset":768,"componentType":5126,"count":8,"max":[0.04999999999999947,0.0,-0.39686269665968865],"min":[-0.049999999999999455,0.0,-0.5997679953555682],"type":"VEC3"},{"bufferView":0,"byteOffset":864,"componentType":5126,"count":8,"max":[0.04999999999999947,0.1,-0.39686269665968865],"min":[-0.049999999999999455,0.1,-0.5997679953555682],"type":"VEC3"},{"bufferView":0,"byteOffset":960,"componentType":5126,"count":8,"max":[0.39965100536665915,0.1,0.04999999999999859],"min":[0.3968626966596887,0.0,-0.04999999999999857],"type":"VEC3"},{"bufferView":0,"byteOffset":1056,"componentType":5126,"count":4,"max":[0.59791303715507,0.1,-0.04999999999999857],"min":[0.3968626966596887,0.0,-0.04999999999999865],"type":"VEC3"},{"bufferView":0,"byteOffset":1104,"componentType":5126,"count":8,"max":[0.5997679959506015,0.1,0.04999999999999864],"min":[0.59791303715507,0.0,-0.04999999999999865],"type":"VEC3"},{"bufferView":0,"byteOffset":1200,"componentType":5126,"count":4,"max":[0.59791303715507,0.1,0.04999999999999864],"min":[0.3968626966596887,0.0,0.04999999999999859],"type":"VEC3"},{"bufferView":0,"byteOffset":1248,"componentType":5126,"count":8,"max":[0.5997679959506015,0.0,0.04999999999999864],"min":[0.3968626966596887,0.0,-0.04999999999999865],"type":"VEC3"},{"bufferView":0,"byteOffset":1344,"componentType":5126,"count":8,"max":[0.5997679959506015,0.1,0.04999999999999864],"min":[0.3968626966596887,0.1,-0.04999999999999865],"type":"VEC3"},{"bufferView":0,"byteOffset":1440,"componentType":5126,"count":8,"max":[0.049999999999999246,0.1,0.39965100519407143],"min":[-0.04999999999999923,0.0,0.39686269665968865],"type":"VEC3"},{"bufferView":0,"byteOffset":1536,"componentType":5126,"count":4,"max":[-0.04999999999999923,0.1,0.59791303715507],"min":[-0.04999999999999938,0.0,0.39686269665968865],"type":"VEC3"},{"bufferView":0,"byteOffset":1584,"componentType":5126,"count":8,"max":[0.049999999999998754,0.1,0.5997679953188486],"min":[-0.04999999999999938,0.0,0.59791303715507],"type":"VEC3"},{"bufferView":0,"byteOffset":1680,"componentType":5126,"count":4,"max":[0.049999999999999246,0.1,0.59791303715507],"min":[0.049999999999998754,0.0,0.39686269665968865],"type":"VEC3"},{"bufferView":0,"byteOffset":1728,"componentType":5126,"count":8,"max":[0.049999999999999246,0.0,0.5997679953188486],"min":[-0.04999999999999938,0.0,0.39686269665968865],"type":"VEC3"},{"bufferView":0,"byteOffset":1824,"componentType":5126,"count":8,"max":[0.049999999999999246,0.1,0.5997679953188486],"min":[-0.04999999999999938,0.1,0.39686269665968865],"type":"VEC3"},{"bufferView":1,"byteOffset":0,"componentType":5126,"count":4,"type":"VEC3"},{"bufferView":1,"byteOffset":48,"componentType":5126,"count":8,"type":"VEC3"},{"bufferView":1,"byteOffset":144,"componentType":5126,"count":4,"type":"VEC3"},{"bufferView":1,"byteOffset":192,"componentType":5126,"count":8,"type":"VEC3"},{"bufferView":1,"byteOffset":288,"componentType":5126,"count":8,"type":"VEC3"},{"bufferView":1,"byteOffset":384,"componentType":5126,"count":8,"type":"VEC3"},{"bufferView":1,"byteOffset":480,"componentType":5126,"count":8,"type":"VEC3"},{"bufferView":1,"byteOffset":576,"componentType":5126,"count":4,"type":"VEC3"},{"bufferView":1,"byteOffset":624,"componentType":5126,"count":8,"type":"VEC3"},{"bufferView":1,"byteOffset":720,"componentType":5126,"count":4,"type":"VEC3"},{"bufferView":1,"byteOffset":768,"componentType":5126,"count":8,"type":"VEC3"},{"bufferView":1,"byteOffset":864,"componentType":5126,"count":8,"type":"VEC3"},{"bufferView":1,"byteOffset":960,"componentType":5126,"count":8,"type":"VEC3"},{"bufferView":1,"byteOffset":1056,"componentType":5126,"count":4,"type":"VEC3"},{"bufferView":1,"byteOffset":1104,"componentType":5126,"count":8,"type":"VEC3"},{"bufferView":1,"byteOffset":1200,"componentType":5126,"count":4,"type":"VEC3"},{"bufferView":1,"byteOffset":1248,"componentType":5126,"count":8,"type":"VEC3"},{"bufferView":1,"byteOffset":1344,"componentType":5126,"count":8,"type":"VEC3"},{"bufferView":1,"byteOffset":1440,"componentType":5126,"count":8,"type":"VEC3"},{"bufferView":1,"byteOffset":1536,"componentType":5126,"count":4,"type":"VEC3"},{"bufferView":1,"byteOffset":1584,"componentType":5126,"count":8,"type":"VEC3"},{"bufferView":1,"byteOffset":1680,"componentType":5126,"count":4,"type":"VEC3"},{"bufferView":1,"byteOffset":1728,"componentType":5126,"count":8,"type":"VEC3"},{"bufferView":1,"byteOffset":1824,"componentType":5126,"count":8,"type":"VEC3"},{"bufferView":2,"byteOffset":0,"componentType":5123,"count":6,"type":"SCALAR"},{"bufferView":2,"byteOffset":12,"componentType":5123,"count":18,"type":"SCALAR"},{"bufferView":2,"byteOffset":48,"componentType":5123,"count":6,"type":"SCALAR"},{"bufferView":2,"byteOffset":60,"componentType":5123,"count":18,"type":"SCALAR"},{"bufferView":2,"byteOffset":96,"componentType":5123,"count":18,"type":"SCALAR"},{"bufferView":2,"byteOffset":132,"componentType":5123,"count":18,"type":"SCALAR"},{"bufferView":2,"byteOffset":168,"componentType":5123,"count":18,"type":"SCALAR"},{"bufferView":2,"byteOffset":204,"componentType":5123,"count":6,"type":"SCALAR"},{"bufferView":2,"byteOffset":216,"componentType":5123,"count":18,"type":"SCALAR"},{"bufferView":2,"byteOffset":252,"componentType":5123,"count":6,"type":"SCALAR"},{"bufferView":2,"byteOffset":264,"componentType":5123,"count":18,"type":"SCALAR"},{"bufferView":2,"byteOffset":300,"componentType":5123,"count":18,"type":"SCALAR"},{"bufferView":2,"byteOffset":336,"componentType":5123,"count":18,"type":"SCALAR"},{"bufferView":2,"byteOffset":372,"componentType":5123,"count":6,"type":"SCALAR"},{"bufferView":2,"byteOffset":384,"componentType":5123,"count":18,"type":"SCALAR"},{"bufferView":2,"byteOffset":420,"componentType":5123,"count":6,"type":"SCALAR"},{"bufferView":2,"byteOffset":432,"componentType":5123,"count":18,"type":"SCALAR"},{"bufferView":2,"byteOffset":468,"componentType":5123,"count":18,"type":"SCALAR"},{"bufferView":2,"byteOffset":504,"componentType":5123,"count":18,"type":"SCALAR"},{"bufferView":2,"byteOffset":540,"componentType":5123,"count":6,"type":"SCALAR"},{"bufferView":2,"byteOffset":552,"componentType":5123,"count":18,"type":"SCALAR"},{"bufferView":2,"byteOffset":588,"componentType":5123,"count":6,"type":"SCALAR"},{"bufferView":2,"byteOffset":600,"componentType":5123,"count":18,"type":"SCALAR"},{"bufferView":2,"byteOffset":636,"componentType":5123,"count":18,"type":"SCALAR"}],"asset":{"generator":"Open CASCADE Technology 7.8 [dev.opencascade.org]","version":"2.0"},"bufferViews":[{"buffer":0,"byteLength":1920,"byteOffset":0,"byteStride":12,"target":34962},{"buffer":0,"byteLength":1920,"byteOffset":1920,"byteStride":12,"target":34962},{"buffer":0,"byteLength":672,"byteOffset":3840,"target":34963}],"buffers":[{"byteLength":4512,"uri":"etherlaken-Outer_Ring_Inner_Passages.bin"}],"materials":[{"name":"mat_0","pbrMetallicRoughness":{"baseColorFactor":[0.16826939582824707,0.19120168685913086,0.2158605307340622,1.0]},"doubleSided":true}],"meshes":[{"name":"Ring_Passages","primitives":[{"attributes":{"NORMAL":24,"POSITION":0},"indices":48,"material":0,"mode":4},{"attributes":{"NORMAL":25,"POSITION":1},"indices":49,"material":0,"mode":4},{"attributes":{"NORMAL":26,"POSITION":2},"indices":50,"material":0,"mode":4},{"attributes":{"NORMAL":27,"POSITION":3},"indices":51,"material":0,"mode":4},{"attributes":{"NORMAL":28,"POSITION":4},"indices":52,"material":0,"mode":4},{"attributes":{"NORMAL":29,"POSITION":5},"indices":53,"material":0,"mode":4},{"attributes":{"NORMAL":30,"POSITION":6},"indices":54,"material":0,"mode":4},{"attributes":{"NORMAL":31,"POSITION":7},"indices":55,"material":0,"mode":4},{"attributes":{"NORMAL":32,"POSITION":8},"indices":56,"material":0,"mode":4},{"attributes":{"NORMAL":33,"POSITION":9},"indices":57,"material":0,"mode":4},{"attributes":{"NORMAL":34,"POSITION":10},"indices":58,"material":0,"mode":4},{"attributes":{"NORMAL":35,"POSITION":11},"indices":59,"material":0,"mode":4},{"attributes":{"NORMAL":36,"POSITION":12},"indices":60,"material":0,"mode":4},{"attributes":{"NORMAL":37,"POSITION":13},"indices":61,"material":0,"mode":4},{"attributes":{"NORMAL":38,"POSITION":14},"indices":62,"material":0,"mode":4},{"attributes":{"NORMAL":39,"POSITION":15},"indices":63,"material":0,"mode":4},{"attributes":{"NORMAL":40,"POSITION":16},"indices":64,"material":0,"mode":4},{"attributes":{"NORMAL":41,"POSITION":17},"indices":65,"material":0,"mode":4},{"attributes":{"NORMAL":42,"POSITION":18},"indices":66,"material":0,"mode":4},{"attributes":{"NORMAL":43,"POSITION":19},"indices":67,"material":0,"mode":4},{"attributes":{"NORMAL":44,"POSITION":20},"indices":68,"material":0,"mode":4},{"attributes":{"NORMAL":45,"POSITION":21},"indices":69,"material":0,"mode":4},{"attributes":{"NORMAL":46,"POSITION":22},"indices":70,"material":0,"mode":4},{"attributes":{"NORMAL":47,"POSITION":23},"indices":71,"material":0,"mode":4}]}],"nodes":[{"mesh":0,"name":"Ring_Passages"}],"scene":0,"scenes":[{"nodes":[0]}]}