{"accessors":[{"bufferView":0,"byteOffset":0,"componentType":5126,"count":98,"max":[0.24999999487427813,0.11000000000000006,0.24999999487427815],"min":[-0.24999999487427818,0.0999999999999999,-0.24999999487427815],"type":"VEC3"},{"bufferView":0,"byteOffset":1176,"componentType":5126,"count":109,"max":[0.3998673818817027,0.10000000000000009,0.39946963083500664],"min":[-0.3998673818817028,0.0999999999999998,-0.3999999948742782],"type":"VEC3"},{"bufferView":0,"byteOffset":2484,"componentType":5126,"count":199,"max":[0.3998673818817027,0.11000000000000006,0.39946963083500664],"min":[-0.3998673818817028,0.0999999999999998,-0.3999999948742782],"type":"VEC3"},{"bufferView":1,"byteOffset":0,"componentType":5126,"count":98,"type":"VEC3"},{"bufferView":1,"byteOffset":1176,"componentType":5126,"count":109,"type":"VEC3"},{"bufferView":1,"byteOffset":2484,"componentType":5126,"count":199,"type":"VEC3"},{"bufferView":2,"byteOffset":0,"componentType":5123,"count":288,"type":"SCALAR"},{"bufferView":2,"byteOffset":576,"componentType":5123,"count":327,"type":"SCALAR"},{"bufferView":2,"byteOffset":1232,"componentType":5123,"count":843,"type":"SCALAR"}],"asset":{"generator":"Open CASCADE Technology 7.8 [dev.opencascade.org]","version":"2.0"},"bufferViews":[{"buffer":0,"byteLength":4872,"byteOffset":0,"byteStride":12,"target":34962},{"buffer":0,"byteLength":4872,"byteOffset":4872,"byteStride":12,"target":34962},{"buffer":0,"byteLength":2920,"byteOffset":9744,"target":34963}],"buffers":[{"byteLength":12664,"uri":"etherlaken-Main_Building_F0_roof.bin"}],"materials":[{"name":"mat_0","pbrMetallicRoughness":{"baseColorFactor":[0.16826939582824707,0.19120168685913086,0.2158605307340622,1.0]},"doubleSided":true}],"meshes":[{"name":"Main_Building_F0_Roof","primitives":[{"attributes":{"NORMAL":3,"POSITION":0},"indices":6,"material":0,"mode":4},{"attributes":{"NORMAL":4,"POSITION":1},"indices":7,"material":0,"mode":4},{"attributes":{"NORMAL":5,"POSITION":2},"indices":8,"material":0,"mode":4}]}],"nodes":[{"mesh":0,"name":"Main_Building_F0_Roof"}],"scene":0,"scenes":[{"nodes":[0]}]}