{"accessors":[{"bufferView":0,"byteOffset":0,"componentType":5126,"count":54,"max":[0.03474481059343184,0.19000000000000003,0.03499999999999999],"min":[-0.03474481059343197,0.18000000000000002,-0.03500000000000003],"type":"VEC3"},{"bufferView":0,"byteOffset":648,"componentType":5126,"count":87,"max":[0.23504308529602091,0.18000000000000005,0.23480928619804192],"min":[-0.23504308529602103,0.17999999999999988,-0.23512103555737662],"type":"VEC3"},{"bufferView":0,"byteOffset":1692,"componentType":5126,"count":221,"max":[0.23504308529602091,0.19000000000000003,0.23480928619804192],"min":[-0.23504308529602103,0.17999999999999988,-0.23512103555737662],"type":"VEC3"},{"bufferView":1,"byteOffset":0,"componentType":5126,"count":54,"type":"VEC3"},{"bufferView":1,"byteOffset":648,"componentType":5126,"count":87,"type":"VEC3"},{"bufferView":1,"byteOffset":1692,"componentType":5126,"count":221,"type":"VEC3"},{"bufferView":2,"byteOffset":0,"componentType":5123,"count":156,"type":"SCALAR"},{"bufferView":2,"byteOffset":312,"componentType":5123,"count":261,"type":"SCALAR"},{"bufferView":2,"byteOffset":836,"componentType":5123,"count":1035,"type":"SCALAR"}],"asset":{"generator":"Open CASCADE Technology 7.8 [dev.opencascade.org]","version":"2.0"},"bufferViews":[{"buffer":0,"byteLength":4344,"byteOffset":0,"byteStride":12,"target":34962},{"buffer":0,"byteLength":4344,"byteOffset":4344,"byteStride":12,"target":34962},{"buffer":0,"byteLength":2908,"byteOffset":8688,"target":34963}],"buffers":[{"byteLength":11596,"uri":"etherlaken-Main_Building_F1_Roof.bin"}],"materials":[{"name":"mat_0","pbrMetallicRoughness":{"baseColorFactor":[0.16826939582824707,0.19120168685913086,0.2158605307340622,1.0]},"doubleSided":true}],"meshes":[{"name":"Main_Building_F1_Roof","primitives":[{"attributes":{"NORMAL":3,"POSITION":0},"indices":6,"material":0,"mode":4},{"attributes":{"NORMAL":4,"POSITION":1},"indices":7,"material":0,"mode":4},{"attributes":{"NORMAL":5,"POSITION":2},"indices":8,"material":0,"mode":4}]}],"nodes":[{"mesh":0,"name":"Main_Building_F1_Roof"}],"scene":0,"scenes":[{"nodes":[0]}]}