{"accessors":[{"bufferView":0,"byteOffset":0,"componentType":5126,"count":162,"max":[0.2499999948742781,0.18,0.24991139765695772],"min":[-0.24964566880073333,0.11,-0.24991139765695775],"type":"VEC3"},{"bufferView":0,"byteOffset":1944,"componentType":5126,"count":59,"max":[0.2499999948742781,0.11,0.24991139765695772],"min":[-0.24964566880073333,0.11,-0.24991139765695775],"type":"VEC3"},{"bufferView":0,"byteOffset":2652,"componentType":5126,"count":140,"max":[0.23512103555737654,0.18,0.2347762103033187],"min":[-0.23512103555737654,0.18,-0.2347762103033187],"type":"VEC3"},{"bufferView":0,"byteOffset":4332,"componentType":5126,"count":205,"max":[0.23765102330892757,0.18,0.23730248760987646],"min":[-0.23765102330892757,0.12,-0.23730248760987646],"type":"VEC3"},{"bufferView":0,"byteOffset":6792,"componentType":5126,"count":7,"max":[0.228,0.16540449484646097,2.7255813205784648e-17],"min":[0.228,0.12,-0.0030000000000000014],"type":"VEC3"},{"bufferView":0,"byteOffset":6876,"componentType":5126,"count":7,"max":[0.228,0.18,-0.0029999999999908785],"min":[0.10300000000000001,0.12,-0.0030000000000000014],"type":"VEC3"},{"bufferView":0,"byteOffset":6960,"componentType":5126,"count":7,"max":[0.16717514421272203,0.18,-0.09684630375590798],"min":[0.1,0.12,-0.16402144796863],"type":"VEC3"},{"bufferView":0,"byteOffset":7044,"componentType":5126,"count":7,"max":[0.16717514421272203,0.13627645387390552,-0.16402144796863],"min":[0.165598296090676,0.12,-0.165598296090676],"type":"VEC3"},{"bufferView":0,"byteOffset":7128,"componentType":5126,"count":5,"max":[0.165598296090676,0.18,-0.09842315187795399],"min":[0.098423151877954,0.12,-0.165598296090676],"type":"VEC3"},{"bufferView":0,"byteOffset":7188,"componentType":5126,"count":5,"max":[-0.098423151877954,0.18,-0.09842315187795399],"min":[-0.165598296090676,0.12,-0.165598296090676],"type":"VEC3"},{"bufferView":0,"byteOffset":7248,"componentType":5126,"count":7,"max":[-0.165598296090676,0.13627645387390552,-0.16402144796863],"min":[-0.16717514421272203,0.12,-0.165598296090676],"type":"VEC3"},{"bufferView":0,"byteOffset":7332,"componentType":5126,"count":7,"max":[-0.1,0.18,-0.09684630375590798],"min":[-0.16717514421272203,0.12,-0.16402144796863],"type":"VEC3"},{"bufferView":0,"byteOffset":7416,"componentType":5126,"count":7,"max":[-0.10300000000000001,0.18,-0.002999999999991317],"min":[-0.228,0.12,-0.0030000000000000014],"type":"VEC3"},{"bufferView":0,"byteOffset":7500,"componentType":5126,"count":7,"max":[-0.228,0.16540449484645897,-1.3322676295501879e-18],"min":[-0.228,0.12,-0.0030000000000000014],"type":"VEC3"},{"bufferView":0,"byteOffset":7584,"componentType":5126,"count":5,"max":[-0.10300000000000001,0.18,-1.3322676295501879e-18],"min":[-0.228,0.12,-1.0651083174031303e-14],"type":"VEC3"},{"bufferView":0,"byteOffset":7644,"componentType":5126,"count":7,"max":[-0.1,0.18,0.16402144796863],"min":[-0.16717514421272203,0.12,0.09684630375590798],"type":"VEC3"},{"bufferView":0,"byteOffset":7728,"componentType":5126,"count":7,"max":[-0.165598296090676,0.13627645387390552,0.165598296090676],"min":[-0.16717514421272203,0.12,0.16402144796863],"type":"VEC3"},{"bufferView":0,"byteOffset":7812,"componentType":5126,"count":5,"max":[-0.098423151877954,0.18,0.165598296090676],"min":[-0.165598296090676,0.12,0.09842315187795399],"type":"VEC3"},{"bufferView":0,"byteOffset":7872,"componentType":5126,"count":5,"max":[0.165598296090676,0.18,0.165598296090676],"min":[0.098423151877954,0.12,0.09842315187795399],"type":"VEC3"},{"bufferView":0,"byteOffset":7932,"componentType":5126,"count":7,"max":[0.16717514421272203,0.13627645387390552,0.165598296090676],"min":[0.165598296090676,0.12,0.16402144796863],"type":"VEC3"},{"bufferView":0,"byteOffset":8016,"componentType":5126,"count":7,"max":[0.16717514421272203,0.18,0.16402144796863],"min":[0.1,0.12,0.09684630375590798],"type":"VEC3"},{"bufferView":0,"byteOffset":8100,"componentType":5126,"count":5,"max":[0.228,0.18,2.7255813205784648e-17],"min":[0.10300000000000001,0.12,-1.3322676295501879e-18],"type":"VEC3"},{"bufferView":0,"byteOffset":8160,"componentType":5126,"count":94,"max":[0.23765102330892757,0.12,0.23730248760987646],"min":[-0.23765102330892757,0.12,-0.23730248760987646],"type":"VEC3"},{"bufferView":0,"byteOffset":9288,"componentType":5126,"count":4,"max":[0.10300000000000001,0.18,-0.0030000000000000014],"min":[0.10300000000000001,0.12,-0.06],"type":"VEC3"},{"bufferView":0,"byteOffset":9336,"componentType":5126,"count":4,"max":[0.10300000000000001,0.18,0.06],"min":[0.10300000000000001,0.12,-1.3322676295501879e-18],"type":"VEC3"},{"bufferView":0,"byteOffset":9384,"componentType":5126,"count":4,"max":[0.10300000000000001,0.18,0.06],"min":[0.1,0.12,0.06],"type":"VEC3"},{"bufferView":0,"byteOffset":9432,"componentType":5126,"count":4,"max":[0.1,0.18,0.06],"min":[0.1,0.12,-0.06],"type":"VEC3"},{"bufferView":0,"byteOffset":9480,"componentType":5126,"count":4,"max":[0.10300000000000001,0.18,-0.06],"min":[0.1,0.12,-0.06],"type":"VEC3"},{"bufferView":0,"byteOffset":9528,"componentType":5126,"count":4,"max":[0.1,0.18,-0.09684630375590798],"min":[0.098423151877954,0.12,-0.09842315187795399],"type":"VEC3"},{"bufferView":0,"byteOffset":9576,"componentType":5126,"count":4,"max":[-0.098423151877954,0.18,-0.09684630375590798],"min":[-0.1,0.12,-0.09842315187795399],"type":"VEC3"},{"bufferView":0,"byteOffset":9624,"componentType":5126,"count":4,"max":[-0.10300000000000001,0.18,-0.0030000000000000014],"min":[-0.10300000000000001,0.12,-0.06],"type":"VEC3"},{"bufferView":0,"byteOffset":9672,"componentType":5126,"count":4,"max":[-0.10300000000000001,0.18,0.06],"min":[-0.10300000000000001,0.12,-1.3322676295501879e-18],"type":"VEC3"},{"bufferView":0,"byteOffset":9720,"componentType":5126,"count":4,"max":[-0.098423151877954,0.18,0.09842315187795399],"min":[-0.1,0.12,0.09684630375590798],"type":"VEC3"},{"bufferView":0,"byteOffset":9768,"componentType":5126,"count":4,"max":[0.1,0.18,0.09842315187795399],"min":[0.098423151877954,0.12,0.09684630375590798],"type":"VEC3"},{"bufferView":0,"byteOffset":9816,"componentType":5126,"count":4,"max":[-0.1,0.18,0.06],"min":[-0.10300000000000001,0.12,0.06],"type":"VEC3"},{"bufferView":0,"byteOffset":9864,"componentType":5126,"count":4,"max":[-0.1,0.18,0.06],"min":[-0.1,0.12,-0.06],"type":"VEC3"},{"bufferView":0,"byteOffset":9912,"componentType":5126,"count":4,"max":[-0.1,0.18,-0.06],"min":[-0.10300000000000001,0.12,-0.06],"type":"VEC3"},{"bufferView":0,"byteOffset":9960,"componentType":5126,"count":4,"max":[-0.05,0.18,0.065],"min":[-0.05,0.12,-0.065],"type":"VEC3"},{"bufferView":0,"byteOffset":10008,"componentType":5126,"count":4,"max":[0.05,0.18,0.065],"min":[-0.05,0.12,0.065],"type":"VEC3"},{"bufferView":0,"byteOffset":10056,"componentType":5126,"count":4,"max":[0.05000000000000001,0.18,0.065],"min":[0.05,0.12,-0.065],"type":"VEC3"},{"bufferView":0,"byteOffset":10104,"componentType":5126,"count":4,"max":[0.05000000000000001,0.18,-0.065],"min":[-0.05,0.12,-0.065],"type":"VEC3"},{"bufferView":0,"byteOffset":10152,"componentType":5126,"count":4,"max":[0.05000000000000001,0.18,0.065],"min":[-0.05,0.18,-0.065],"type":"VEC3"},{"bufferView":1,"byteOffset":0,"componentType":5126,"count":162,"type":"VEC3"},{"bufferView":1,"byteOffset":1944,"componentType":5126,"count":59,"type":"VEC3"},{"bufferView":1,"byteOffset":2652,"componentType":5126,"count":140,"type":"VEC3"},{"bufferView":1,"byteOffset":4332,"componentType":5126,"count":205,"type":"VEC3"},{"bufferView":1,"byteOffset":6792,"componentType":5126,"count":7,"type":"VEC3"},{"bufferView":1,"byteOffset":6876,"componentType":5126,"count":7,"type":"VEC3"},{"bufferView":1,"byteOffset":6960,"componentType":5126,"count":7,"type":"VEC3"},{"bufferView":1,"byteOffset":7044,"componentType":5126,"count":7,"type":"VEC3"},{"bufferView":1,"byteOffset":7128,"componentType":5126,"count":5,"type":"VEC3"},{"bufferView":1,"byteOffset":7188,"componentType":5126,"count":5,"type":"VEC3"},{"bufferView":1,"byteOffset":7248,"componentType":5126,"count":7,"type":"VEC3"},{"bufferView":1,"byteOffset":7332,"componentType":5126,"count":7,"type":"VEC3"},{"bufferView":1,"byteOffset":7416,"componentType":5126,"count":7,"type":"VEC3"},{"bufferView":1,"byteOffset":7500,"componentType":5126,"count":7,"type":"VEC3"},{"bufferView":1,"byteOffset":7584,"componentType":5126,"count":5,"type":"VEC3"},{"bufferView":1,"byteOffset":7644,"componentType":5126,"count":7,"type":"VEC3"},{"bufferView":1,"byteOffset":7728,"componentType":5126,"count":7,"type":"VEC3"},{"bufferView":1,"byteOffset":7812,"componentType":5126,"count":5,"type":"VEC3"},{"bufferView":1,"byteOffset":7872,"componentType":5126,"count":5,"type":"VEC3"},{"bufferView":1,"byteOffset":7932,"componentType":5126,"count":7,"type":"VEC3"},{"bufferView":1,"byteOffset":8016,"componentType":5126,"count":7,"type":"VEC3"},{"bufferView":1,"byteOffset":8100,"componentType":5126,"count":5,"type":"VEC3"},{"bufferView":1,"byteOffset":8160,"componentType":5126,"count":94,"type":"VEC3"},{"bufferView":1,"byteOffset":9288,"componentType":5126,"count":4,"type":"VEC3"},{"bufferView":1,"byteOffset":9336,"componentType":5126,"count":4,"type":"VEC3"},{"bufferView":1,"byteOffset":9384,"componentType":5126,"count":4,"type":"VEC3"},{"bufferView":1,"byteOffset":9432,"componentType":5126,"count":4,"type":"VEC3"},{"bufferView":1,"byteOffset":9480,"componentType":5126,"count":4,"type":"VEC3"},{"bufferView":1,"byteOffset":9528,"componentType":5126,"count":4,"type":"VEC3"},{"bufferView":1,"byteOffset":9576,"componentType":5126,"count":4,"type":"VEC3"},{"bufferView":1,"byteOffset":9624,"componentType":5126,"count":4,"type":"VEC3"},{"bufferView":1,"byteOffset":9672,"componentType":5126,"count":4,"type":"VEC3"},{"bufferView":1,"byteOffset":9720,"componentType":5126,"count":4,"type":"VEC3"},{"bufferView":1,"byteOffset":9768,"componentType":5126,"count":4,"type":"VEC3"},{"bufferView":1,"byteOffset":9816,"componentType":5126,"count":4,"type":"VEC3"},{"bufferView":1,"byteOffset":9864,"componentType":5126,"count":4,"type":"VEC3"},{"bufferView":1,"byteOffset":9912,"componentType":5126,"count":4,"type":"VEC3"},{"bufferView":1,"byteOffset":9960,"componentType":5126,"count":4,"type":"VEC3"},{"bufferView":1,"byteOffset":10008,"componentType":5126,"count":4,"type":"VEC3"},{"bufferView":1,"byteOffset":10056,"componentType":5126,"count":4,"type":"VEC3"},{"bufferView":1,"byteOffset":10104,"componentType":5126,"count":4,"type":"VEC3"},{"bufferView":1,"byteOffset":10152,"componentType":5126,"count":4,"type":"VEC3"},{"bufferView":2,"byteOffset":0,"componentType":5123,"count":603,"type":"SCALAR"},{"bufferView":2,"byteOffset":1208,"componentType":5123,"count":171,"type":"SCALAR"},{"bufferView":2,"byteOffset":1552,"componentType":5123,"count":420,"type":"SCALAR"},{"bufferView":2,"byteOffset":2392,"componentType":5123,"count":726,"type":"SCALAR"},{"bufferView":2,"byteOffset":3844,"componentType":5123,"count":15,"type":"SCALAR"},{"bufferView":2,"byteOffset":3876,"componentType":5123,"count":15,"type":"SCALAR"},{"bufferView":2,"byteOffset":3908,"componentType":5123,"count":15,"type":"SCALAR"},{"bufferView":2,"byteOffset":3940,"componentType":5123,"count":15,"type":"SCALAR"},{"bufferView":2,"byteOffset":3972,"componentType":5123,"count":9,"type":"SCALAR"},{"bufferView":2,"byteOffset":3992,"componentType":5123,"count":9,"type":"SCALAR"},{"bufferView":2,"byteOffset":4012,"componentType":5123,"count":15,"type":"SCALAR"},{"bufferView":2,"byteOffset":4044,"componentType":5123,"count":15,"type":"SCALAR"},{"bufferView":2,"byteOffset":4076,"componentType":5123,"count":15,"type":"SCALAR"},{"bufferView":2,"byteOffset":4108,"componentType":5123,"count":15,"type":"SCALAR"},{"bufferView":2,"byteOffset":4140,"componentType":5123,"count":9,"type":"SCALAR"},{"bufferView":2,"byteOffset":4160,"componentType":5123,"count":15,"type":"SCALAR"},{"bufferView":2,"byteOffset":4192,"componentType":5123,"count":15,"type":"SCALAR"},{"bufferView":2,"byteOffset":4224,"componentType":5123,"count":9,"type":"SCALAR"},{"bufferView":2,"byteOffset":4244,"componentType":5123,"count":9,"type":"SCALAR"},{"bufferView":2,"byteOffset":4264,"componentType":5123,"count":15,"type":"SCALAR"},{"bufferView":2,"byteOffset":4296,"componentType":5123,"count":15,"type":"SCALAR"},{"bufferView":2,"byteOffset":4328,"componentType":5123,"count":9,"type":"SCALAR"},{"bufferView":2,"byteOffset":4348,"componentType":5123,"count":318,"type":"SCALAR"},{"bufferView":2,"byteOffset":4984,"componentType":5123,"count":6,"type":"SCALAR"},{"bufferView":2,"byteOffset":4996,"componentType":5123,"count":6,"type":"SCALAR"},{"bufferView":2,"byteOffset":5008,"componentType":5123,"count":6,"type":"SCALAR"},{"bufferView":2,"byteOffset":5020,"componentType":5123,"count":6,"type":"SCALAR"},{"bufferView":2,"byteOffset":5032,"componentType":5123,"count":6,"type":"SCALAR"},{"bufferView":2,"byteOffset":5044,"componentType":5123,"count":6,"type":"SCALAR"},{"bufferView":2,"byteOffset":5056,"componentType":5123,"count":6,"type":"SCALAR"},{"bufferView":2,"byteOffset":5068,"componentType":5123,"count":6,"type":"SCALAR"},{"bufferView":2,"byteOffset":5080,"componentType":5123,"count":6,"type":"SCALAR"},{"bufferView":2,"byteOffset":5092,"componentType":5123,"count":6,"type":"SCALAR"},{"bufferView":2,"byteOffset":5104,"componentType":5123,"count":6,"type":"SCALAR"},{"bufferView":2,"byteOffset":5116,"componentType":5123,"count":6,"type":"SCALAR"},{"bufferView":2,"byteOffset":5128,"componentType":5123,"count":6,"type":"SCALAR"},{"bufferView":2,"byteOffset":5140,"componentType":5123,"count":6,"type":"SCALAR"},{"bufferView":2,"byteOffset":5152,"componentType":5123,"count":6,"type":"SCALAR"},{"bufferView":2,"byteOffset":5164,"componentType":5123,"count":6,"type":"SCALAR"},{"bufferView":2,"byteOffset":5176,"componentType":5123,"count":6,"type":"SCALAR"},{"bufferView":2,"byteOffset":5188,"componentType":5123,"count":6,"type":"SCALAR"},{"bufferView":2,"byteOffset":5200,"componentType":5123,"count":6,"type":"SCALAR"}],"asset":{"generator":"Open CASCADE Technology 7.8 [dev.opencascade.org]","version":"2.0"},"bufferViews":[{"buffer":0,"byteLength":10200,"byteOffset":0,"byteStride":12,"target":34962},{"buffer":0,"byteLength":10200,"byteOffset":10200,"byteStride":12,"target":34962},{"buffer":0,"byteLength":5212,"byteOffset":20400,"target":34963}],"buffers":[{"byteLength":25612,"uri":"etherlaken-Main_Building_F1.bin"}],"materials":[{"name":"mat_0","pbrMetallicRoughness":{"baseColorFactor":[0.16826939582824707,0.19120168685913086,0.2158605307340622,1.0]},"doubleSided":true}],"meshes":[{"name":"Main_Building_F1","primitives":[{"attributes":{"NORMAL":42,"POSITION":0},"indices":84,"material":0,"mode":4},{"attributes":{"NORMAL":43,"POSITION":1},"indices":85,"material":0,"mode":4},{"attributes":{"NORMAL":44,"POSITION":2},"indices":86,"material":0,"mode":4},{"attributes":{"NORMAL":45,"POSITION":3},"indices":87,"material":0,"mode":4},{"attributes":{"NORMAL":46,"POSITION":4},"indices":88,"material":0,"mode":4},{"attributes":{"NORMAL":47,"POSITION":5},"indices":89,"material":0,"mode":4},{"attributes":{"NORMAL":48,"POSITION":6},"indices":90,"material":0,"mode":4},{"attributes":{"NORMAL":49,"POSITION":7},"indices":91,"material":0,"mode":4},{"attributes":{"NORMAL":50,"POSITION":8},"indices":92,"material":0,"mode":4},{"attributes":{"NORMAL":51,"POSITION":9},"indices":93,"material":0,"mode":4},{"attributes":{"NORMAL":52,"POSITION":10},"indices":94,"material":0,"mode":4},{"attributes":{"NORMAL":53,"POSITION":11},"indices":95,"material":0,"mode":4},{"attributes":{"NORMAL":54,"POSITION":12},"indices":96,"material":0,"mode":4},{"attributes":{"NORMAL":55,"POSITION":13},"indices":97,"material":0,"mode":4},{"attributes":{"NORMAL":56,"POSITION":14},"indices":98,"material":0,"mode":4},{"attributes":{"NORMAL":57,"POSITION":15},"indices":99,"material":0,"mode":4},{"attributes":{"NORMAL":58,"POSITION":16},"indices":100,"material":0,"mode":4},{"attributes":{"NORMAL":59,"POSITION":17},"indices":101,"material":0,"mode":4},{"attributes":{"NORMAL":60,"POSITION":18},"indices":102,"material":0,"mode":4},{"attributes":{"NORMAL":61,"POSITION":19},"indices":103,"material":0,"mode":4},{"attributes":{"NORMAL":62,"POSITION":20},"indices":104,"material":0,"mode":4},{"attributes":{"NORMAL":63,"POSITION":21},"indices":105,"material":0,"mode":4},{"attributes":{"NORMAL":64,"POSITION":22},"indices":106,"material":0,"mode":4},{"attributes":{"NORMAL":65,"POSITION":23},"indices":107,"material":0,"mode":4},{"attributes":{"NORMAL":66,"POSITION":24},"indices":108,"material":0,"mode":4},{"attributes":{"NORMAL":67,"POSITION":25},"indices":109,"material":0,"mode":4},{"attributes":{"NORMAL":68,"POSITION":26},"indices":110,"material":0,"mode":4},{"attributes":{"NORMAL":69,"POSITION":27},"indices":111,"material":0,"mode":4},{"attributes":{"NORMAL":70,"POSITION":28},"indices":112,"material":0,"mode":4},{"attributes":{"NORMAL":71,"POSITION":29},"indices":113,"material":0,"mode":4},{"attributes":{"NORMAL":72,"POSITION":30},"indices":114,"material":0,"mode":4},{"attributes":{"NORMAL":73,"POSITION":31},"indices":115,"material":0,"mode":4},{"attributes":{"NORMAL":74,"POSITION":32},"indices":116,"material":0,"mode":4},{"attributes":{"NORMAL":75,"POSITION":33},"indices":117,"material":0,"mode":4},{"attributes":{"NORMAL":76,"POSITION":34},"indices":118,"material":0,"mode":4},{"attributes":{"NORMAL":77,"POSITION":35},"indices":119,"material":0,"mode":4},{"attributes":{"NORMAL":78,"POSITION":36},"indices":120,"material":0,"mode":4},{"attributes":{"NORMAL":79,"POSITION":37},"indices":121,"material":0,"mode":4},{"attributes":{"NORMAL":80,"POSITION":38},"indices":122,"material":0,"mode":4},{"attributes":{"NORMAL":81,"POSITION":39},"indices":123,"material":0,"mode":4},{"attributes":{"NORMAL":82,"POSITION":40},"indices":124,"material":0,"mode":4},{"attributes":{"NORMAL":83,"POSITION":41},"indices":125,"material":0,"mode":4}]}],"nodes":[{"mesh":0,"name":"Main_Building_F1"}],"scene":0,"scenes":[{"nodes":[0]}]}