{"accessors":[{"bufferView":0,"byteOffset":0,"componentType":5126,"count":113,"max":[0.6749999968952405,0.15000000000000016,0.6747437041382615],"min":[-0.6739750204924435,0.10999999999999988,-0.6747437041382615],"type":"VEC3"},{"bufferView":0,"byteOffset":1356,"componentType":5126,"count":119,"max":[0.75,0.15000000000000016,0.75],"min":[-0.75,0.10999999999999983,-0.75],"type":"VEC3"},{"bufferView":0,"byteOffset":2784,"componentType":5126,"count":110,"max":[0.5999999937904806,0.11000000000000013,0.5989848887637472],"min":[-0.5999999937904806,0.0,-0.5989848887637472],"type":"VEC3"},{"bufferView":0,"byteOffset":4104,"componentType":5126,"count":122,"max":[0.75,0.11000000000000017,0.75],"min":[-0.75,0.0,-0.75],"type":"VEC3"},{"bufferView":0,"byteOffset":5568,"componentType":5126,"count":114,"max":[0.75,0.0,0.75],"min":[-0.75,0.0,-0.75],"type":"VEC3"},{"bufferView":1,"byteOffset":0,"componentType":5126,"count":113,"type":"VEC3"},{"bufferView":1,"byteOffset":1356,"componentType":5126,"count":119,"type":"VEC3"},{"bufferView":1,"byteOffset":2784,"componentType":5126,"count":110,"type":"VEC3"},{"bufferView":1,"byteOffset":4104,"componentType":5126,"count":122,"type":"VEC3"},{"bufferView":1,"byteOffset":5568,"componentType":5126,"count":114,"type":"VEC3"},{"bufferView":2,"byteOffset":0,"componentType":5123,"count":333,"type":"SCALAR"},{"bufferView":2,"byteOffset":668,"componentType":5123,"count":351,"type":"SCALAR"},{"bufferView":2,"byteOffset":1372,"componentType":5123,"count":324,"type":"SCALAR"},{"bufferView":2,"byteOffset":2020,"componentType":5123,"count":360,"type":"SCALAR"},{"bufferView":2,"byteOffset":2740,"componentType":5123,"count":342,"type":"SCALAR"}],"asset":{"generator":"Open CASCADE Technology 7.8 [dev.opencascade.org]","version":"2.0"},"bufferViews":[{"buffer":0,"byteLength":6936,"byteOffset":0,"byteStride":12,"target":34962},{"buffer":0,"byteLength":6936,"byteOffset":6936,"byteStride":12,"target":34962},{"buffer":0,"byteLength":3424,"byteOffset":13872,"target":34963}],"buffers":[{"byteLength":17296,"uri":"etherlaken-Outer_Ring.bin"}],"materials":[{"name":"mat_0","pbrMetallicRoughness":{"baseColorFactor":[0.16826939582824707,0.19120168685913086,0.2158605307340622,1.0]},"doubleSided":true}],"meshes":[{"name":"Ring_Structure","primitives":[{"attributes":{"NORMAL":5,"POSITION":0},"indices":10,"material":0,"mode":4},{"attributes":{"NORMAL":6,"POSITION":1},"indices":11,"material":0,"mode":4},{"attributes":{"NORMAL":7,"POSITION":2},"indices":12,"material":0,"mode":4},{"attributes":{"NORMAL":8,"POSITION":3},"indices":13,"material":0,"mode":4},{"attributes":{"NORMAL":9,"POSITION":4},"indices":14,"material":0,"mode":4}]}],"nodes":[{"mesh":0,"name":"Ring_Structure"}],"scene":0,"scenes":[{"nodes":[0]}]}