{"accessors":[{"bufferView":0,"byteOffset":0,"componentType":5126,"count":98,"max":[0.035,0.28,0.035],"min":[-0.035,0.19,-0.035],"type":"VEC3"},{"bufferView":0,"byteOffset":1176,"componentType":5126,"count":48,"max":[0.035,0.19,0.035],"min":[-0.035,0.19,-0.035],"type":"VEC3"},{"bufferView":0,"byteOffset":1752,"componentType":5126,"count":48,"max":[0.035,0.28,0.035],"min":[-0.035,0.28,-0.035],"type":"VEC3"},{"bufferView":1,"byteOffset":0,"componentType":5126,"count":98,"type":"VEC3"},{"bufferView":1,"byteOffset":1176,"componentType":5126,"count":48,"type":"VEC3"},{"bufferView":1,"byteOffset":1752,"componentType":5126,"count":48,"type":"VEC3"},{"bufferView":2,"byteOffset":0,"componentType":5123,"count":288,"type":"SCALAR"},{"bufferView":2,"byteOffset":576,"componentType":5123,"count":138,"type":"SCALAR"},{"bufferView":2,"byteOffset":852,"componentType":5123,"count":138,"type":"SCALAR"}],"asset":{"generator":"Open CASCADE Technology 7.8 [dev.opencascade.org]","version":"2.0"},"bufferViews":[{"buffer":0,"byteLength":2328,"byteOffset":0,"byteStride":12,"target":34962},{"buffer":0,"byteLength":2328,"byteOffset":2328,"byteStride":12,"target":34962},{"buffer":0,"byteLength":1128,"byteOffset":4656,"target":34963}],"buffers":[{"byteLength":5784,"uri":"etherlaken-Main_Building_Tower.bin"}],"materials":[{"name":"mat_0","pbrMetallicRoughness":{"baseColorFactor":[0.16826939582824707,0.19120168685913086,0.2158605307340622,1.0]},"doubleSided":true}],"meshes":[{"name":"Main_Building_Tower","primitives":[{"attributes":{"NORMAL":3,"POSITION":0},"indices":6,"material":0,"mode":4},{"attributes":{"NORMAL":4,"POSITION":1},"indices":7,"material":0,"mode":4},{"attributes":{"NORMAL":5,"POSITION":2},"indices":8,"material":0,"mode":4}]}],"nodes":[{"mesh":0,"name":"Main_Building_Tower"}],"scene":0,"scenes":[{"nodes":[0]}]}